<svg width="50" height="50" viewBox="0 0 50 50" xmlns="http://www.w3.org/2000/svg"><path d="M4 18a4 4 0 0 1 4-4h22l8 10v16H8a4 4 0 0 1-4-4V18Z" fill="#2E7D32"/><path d="M30 14l8 10h-8V14Z" fill="#81C784"/><path d="M38 24h6a2 2 0 0 1 2 2v14H38V24Z" fill="#1B5E20"/><path d="M38 24h6a2 2 0 0 1 2 2v6h-8v-8Z" fill="#4CAF50"/><circle cx="14" cy="42" r="4" fill="#FBB945"/><circle cx="14" cy="42" r="2" fill="#F86126"/><circle cx="36" cy="42" r="4" fill="#FBB945"/><circle cx="36" cy="42" r="2" fill="#F86126"/><path d="M8 18h10v8H8v-8Z" fill="#81C784"/><path d="M20 18h8v8h-8v-8Z" fill="#A5D6A7"/><path d="M8 28h10v8H8v-8Z" fill="#A5D6A7"/><path d="M20 28h8v8h-8v-8Z" fill="#81C784"/></svg>
